# File created by Blade
# Date/Time:  Wed Jan 21 19:03:07 2015
# Frame Rate: 120.000 fps
#------------------------------------------------------
:FULLY-SPECIFIED
:DEGREES
1860
root -3.675493 29.808034 -10.596827 130.280731 22.976849 7.036110
RightUpLeg -118.627649 -24.381705 18.445261
RightLeg -2.841409 -0.000000 0.000000
RightFoot -22.443104 -16.518220 47.408742
RightToeBase 22.059148 -0.000000 -0.000000
LeftUpLeg -144.112844 3.240021 -13.437786
LeftLeg -1.032503 -0.000000 0.000000
LeftFoot 16.494522 -9.121082 -17.186581
LeftToeBase 7.802400 -0.000000 -0.000000
Spine 3.814562 9.625879 -13.644528
RightShoulder 5.728908 31.831511 -45.573666
RightArm 42.942413 -2.174312 68.222849
RightForeArm 75.007120 -0.000000 64.606290
RightHand 10.833602 0.000000 -4.754503
RightHandThumb1 -24.326973 -0.000000 -32.862282
LeftShoulder 30.329114 63.730863 34.784810
LeftArm 154.651480 -43.647748 -101.196028
LeftForeArm -27.772727 -0.000000 68.844447
LeftHand -20.822223 0.000000 -5.042299
LeftHandThumb1 -26.253704 0.000000 33.147579
Head 22.241951 3.144229 -11.598328
1861
root -3.674381 29.807901 -10.595151 130.399474 23.123090 7.091484
RightUpLeg -118.712334 -24.208163 18.795316
RightLeg -2.942932 -0.000000 0.000000
RightFoot -22.418405 -16.351230 47.464247
RightToeBase 22.344184 -0.000000 -0.000000
LeftUpLeg -144.210428 3.211517 -13.310664
LeftLeg -1.052960 -0.000000 0.000000
LeftFoot 16.460072 -9.113552 -17.038887
LeftToeBase 7.789627 -0.000000 -0.000000
Spine 3.736077 9.647654 -13.698228
RightShoulder 5.878115 31.578121 -45.413333
RightArm 42.713232 -1.997703 67.604847
RightForeArm 75.221339 -0.000000 65.408889
RightHand 10.936683 -0.000000 -5.243131
RightHandThumb1 -24.326973 -0.000000 -32.862282
LeftShoulder 30.956251 63.553995 35.293618
LeftArm 154.721956 -43.723191 -101.340908
LeftForeArm -28.024984 0.000000 69.203440
LeftHand -21.044881 -0.000000 -4.713427
LeftHandThumb1 -26.253704 0.000000 33.147579
Head 23.396951 3.055349 -11.544229
1862
root -3.672703 29.804582 -10.593795 130.476607 23.257874 7.084529
RightUpLeg -118.740462 -24.023944 19.039334
RightLeg -3.054538 -0.000000 0.000000
RightFoot -22.266624 -16.338137 47.203078
RightToeBase 22.368614 -0.000000 -0.000000
LeftUpLeg -144.301708 3.151326 -13.298474
LeftLeg -1.088338 -0.000000 0.000000
LeftFoot 16.428858 -9.296886 -16.867609
LeftToeBase 7.774465 -0.000000 -0.000000
Spine 3.684470 9.540514 -13.762249
RightShoulder 6.068727 31.466240 -45.253412
RightArm 42.605298 -1.902722 67.018000
RightForeArm 75.531228 -0.000000 66.080407
RightHand 10.998139 0.000000 -5.727432
RightHandThumb1 -24.326973 -0.000000 -32.862282
LeftShoulder 31.168447 63.468732 35.346271
LeftArm 154.815588 -43.875491 -101.489827
LeftForeArm -28.222755 0.000000 69.517727
LeftHand -21.228305 0.000000 -4.609881
LeftHandThumb1 -26.253704 0.000000 33.147579
Head 24.478565 3.149046 -11.712963
1863
root -3.669669 29.802236 -10.592743 130.551462 23.377861 7.085885
RightUpLeg -118.763480 -23.867061 19.247567
RightLeg -3.151634 -0.000000 0.000000
RightFoot -22.144419 -16.374933 46.912195
RightToeBase 22.391421 -0.000000 -0.000000
LeftUpLeg -144.379286 3.063084 -13.300518
LeftLeg -1.140526 -0.000000 0.000000
LeftFoot 16.423532 -9.482026 -16.716392
LeftToeBase 7.837131 -0.000000 -0.000000
Spine 3.658217 9.494503 -13.807601
RightShoulder 6.207861 31.288226 -45.224597
RightArm 42.444821 -1.742956 66.526667
RightForeArm 75.927357 -0.000000 66.832293
RightHand 11.043680 -0.000000 -6.218753
RightHandThumb1 -24.326973 -0.000000 -32.862282
LeftShoulder 31.556382 63.410088 35.606676
LeftArm 154.998569 -43.931341 -101.700971
LeftForeArm -28.392343 0.000000 69.897934
LeftHand -21.615897 -0.000000 -4.130939
LeftHandThumb1 -26.253704 0.000000 33.147579
Head 25.487559 3.196806 -12.013089
1864
root -3.666113 29.799191 -10.590052 130.633437 23.498373 7.088003
RightUpLeg -118.770502 -23.706915 19.454015
RightLeg -3.287652 -0.000000 0.000000
RightFoot -22.039462 -16.416455 46.659902
RightToeBase 22.450331 -0.000000 -0.000000
LeftUpLeg -144.475532 3.024462 -13.270732
LeftLeg -1.154548 -0.000000 0.000000
LeftFoot 16.359138 -9.607546 -16.588588
LeftToeBase 7.943906 -0.000000 -0.000000
Spine 3.643267 9.427196 -13.842176
RightShoulder 6.315486 31.132429 -45.202554
RightArm 42.349402 -1.630106 66.002230
RightForeArm 76.419157 -0.000000 67.559026
RightHand 11.177314 0.000000 -6.769400
RightHandThumb1 -24.326973 -0.000000 -32.862282
LeftShoulder 31.847486 63.315819 35.766221
LeftArm 155.130934 -43.943104 -101.935551
LeftForeArm -28.465225 0.000000 70.329346
LeftHand -21.715232 -0.000000 -4.349267
LeftHandThumb1 -26.253704 0.000000 33.147579
Head 26.465370 3.317567 -12.389688
1865
root -3.661336 29.795800 -10.588229 130.691288 23.611454 7.078680
RightUpLeg -118.763325 -23.551864 19.649828
RightLeg -3.414302 -0.000000 0.000000
RightFoot -21.908564 -16.426534 46.430327
RightToeBase 22.446224 -0.000000 -0.000000
LeftUpLeg -144.597362 3.311790 -13.025436
LeftLeg -1.026805 -0.000000 0.000000
LeftFoot 16.046692 -9.360649 -16.526509
LeftToeBase 8.085484 -0.000000 -0.000000
Spine 3.720778 9.373907 -13.849773
RightShoulder 6.236931 31.014383 -45.415555
RightArm 42.250775 -1.523388 65.703429
RightForeArm 76.808308 -0.000000 68.313566
RightHand 11.190047 -0.000000 -7.087525
RightHandThumb1 -24.326973 -0.000000 -32.862282
LeftShoulder 31.869496 63.286573 35.687204
LeftArm 155.329335 -43.756879 -102.122543
LeftForeArm -28.261106 0.000000 70.805090
LeftHand -22.048309 -0.000000 -4.132720
LeftHandThumb1 -26.253704 0.000000 33.147579
Head 27.164028 3.649602 -12.921168
1866
root -3.662641 29.792399 -10.581633 130.769443 23.734623 7.082315
RightUpLeg -118.761889 -23.383493 19.849760
RightLeg -3.538374 -0.000000 0.000000
RightFoot -21.852533 -16.452643 46.178092
RightToeBase 22.563198 -0.000000 -0.000000
LeftUpLeg -144.710114 3.407629 -12.934551
LeftLeg -0.967215 -0.000000 0.000000
LeftFoot 15.885421 -9.447896 -16.379226
LeftToeBase 8.205989 -0.000000 -0.000000
Spine 3.691167 9.397514 -13.917752
RightShoulder 6.335690 30.779207 -45.415868
RightArm 42.108108 -1.290769 65.206779
RightForeArm 77.200040 -0.000000 69.062330
RightHand 11.252796 -0.000000 -7.244826
RightHandThumb1 -24.326973 -0.000000 -32.862282
LeftShoulder 32.480711 63.184145 36.249425
LeftArm 155.512022 -43.615072 -102.495239
LeftForeArm -28.209620 -0.000000 71.356296
LeftHand -22.311927 0.000000 -3.979447
LeftHandThumb1 -26.253704 0.000000 33.147579
Head 28.206969 3.682849 -13.091591
1867
root -3.662537 29.790259 -10.574081 130.844102 23.823532 7.085581
RightUpLeg -118.784116 -23.232237 20.039782
RightLeg -3.641777 -0.000000 0.000000
RightFoot -21.767004 -16.461503 45.942776
RightToeBase 22.608501 -0.000000 -0.000000
LeftUpLeg -144.786052 3.398093 -12.921196
LeftLeg -0.976337 -0.000000 0.000000
LeftFoot 15.815626 -9.567413 -16.218721
LeftToeBase 8.228252 -0.000000 -0.000000
Spine 3.718191 9.377881 -14.002630
RightShoulder 6.353468 30.396132 -45.516159
RightArm 42.135441 -1.003498 64.695749
RightForeArm 77.526695 -0.000000 69.873126
RightHand 11.451901 -0.000000 -7.444078
RightHandThumb1 -24.326973 -0.000000 -32.862282
LeftShoulder 32.824312 63.044675 36.511415
LeftArm 155.672757 -43.519438 -102.764218
LeftForeArm -28.187767 -0.000000 71.837302
LeftHand -22.605037 -0.000000 -3.609461
LeftHandThumb1 -26.253704 0.000000 33.147579
Head 29.083250 3.771927 -13.302659
1868
root -3.665136 29.788516 -10.568762 130.937907 23.912796 7.078076
RightUpLeg -118.820372 -23.103599 20.158047
RightLeg -3.701763 -0.000000 0.000000
RightFoot -21.608496 -16.567839 45.527606
RightToeBase 22.383647 -0.000000 -0.000000
LeftUpLeg -144.906938 3.427776 -12.897191
LeftLeg -0.951297 -0.000000 0.000000
LeftFoot 15.734887 -9.666255 -16.072252
LeftToeBase 8.273020 -0.000000 -0.000000
Spine 3.755907 9.304502 -14.097901
RightShoulder 6.292252 30.278877 -45.695776
RightArm 41.986707 -0.716317 64.411501
RightForeArm 77.615739 -0.000000 70.735430
RightHand 11.237770 -0.000000 -7.442205
RightHandThumb1 -24.326973 -0.000000 -32.862282
LeftShoulder 32.858667 62.933962 36.421237
LeftArm 155.892954 -43.502817 -102.957442
LeftForeArm -28.310385 -0.000000 72.250436
LeftHand -22.821105 -0.000000 -3.383639
LeftHandThumb1 -26.253704 0.000000 33.147579
Head 29.792989 4.010804 -13.516198
1869
root -3.667710 29.788512 -10.561099 131.000611 23.979968 7.059716
RightUpLeg -118.846567 -22.968578 20.291662
RightLeg -3.778027 -0.000000 0.000000
RightFoot -21.638316 -16.501423 45.536336
RightToeBase 22.672933 -0.000000 -0.000000
LeftUpLeg -144.980140 3.522525 -12.859183
LeftLeg -0.939297 -0.000000 0.000000
LeftFoot 15.652453 -9.797581 -15.962505
LeftToeBase 8.252405 -0.000000 -0.000000
Spine 3.818925 9.236225 -14.221203
RightShoulder 6.301164 29.975030 -45.856159
RightArm 41.985184 -0.328853 64.026456
RightForeArm 77.414621 -0.000000 71.594604
RightHand 11.256974 -0.000000 -7.934425
RightHandThumb1 -24.326973 -0.000000 -32.862282
LeftShoulder 33.005724 62.854744 36.412608
LeftArm 156.230956 -43.505876 -103.225777
LeftForeArm -28.306819 0.000000 72.576337
LeftHand -23.018473 -0.000000 -3.296473
LeftHandThumb1 -26.253704 0.000000 33.147579
Head 30.539094 4.233830 -13.659789
